<?xml version="1.0" standalone="no"?>
<!DOCTYPE svg PUBLIC "-//W3C//DTD SVG 1.1//EN" "http://www.w3.org/Graphics/SVG/1.1/DTD/svg11.dtd" >
<svg xmlns="http://www.w3.org/2000/svg">
  <metadata>Created by iconfont</metadata>
  <defs>
  <font id="iconfont" horiz-adv-x="1024">
    <font-face
      font-family="iconfont"
      font-weight="400"
      font-stretch="normal"
      units-per-em="1024"
      ascent="896"
      descent="-128"
    />
      <missing-glyph />
      
      <glyph glyph-name="notice" unicode="&#58887;" d="M0.075093 896h1024v-1024H0.075093zM853.408427 839.111111a56.888889 56.888889 0 0 0 56.888889-56.888889v-227.555555a113.777778 113.777778 0 1 0 0-227.555556v-227.555555a56.888889 56.888889 0 0 0-56.888889-56.888889h-82.773334l-340.423111 227.555555h-52.280889l107.463111-294.513778a28.444444 28.444444 0 0 0-30.663111-37.944888l-233.813333 32.426666a28.444444 28.444444 0 0 0-24.120889 23.438222l-47.160889 277.902223A170.666667 170.666667 0 0 0 170.74176 611.555556h259.470222l340.423111 227.555555H853.408427zM317.344427 270.222222H207.491982l41.927111-246.556444 166.286223-23.04L317.344427 270.222222zM853.408427 782.222222h-65.479111L447.449316 554.666667H170.74176a113.777778 113.777778 0 1 1 0-227.555556h276.707556l340.48-227.555555H853.408427V782.222222z m-142.222223-170.666666a28.444444 28.444444 0 0 0 28.444445-28.444445v-284.444444a28.444444 28.444444 0 1 0-56.888889 0v284.444444a28.444444 28.444444 0 0 0 28.444444 28.444445zM147.303538 485.148444a28.444444 28.444444 0 0 0 28.444444-28.444444c0-32.654222 19.000889-41.301333 80.327111-40.618667l18.602667 0.398223c13.312 0.284444 18.659556 0.398222 25.656889 0.398222a28.444444 28.444444 0 1 0 0-56.888889c-6.314667 0-11.377778-0.113778-24.234667-0.398222a1343.146667 1343.146667 0 0 0-19.342222-0.398223c-89.258667-1.024-137.898667 21.162667-137.898667 97.507556a28.444444 28.444444 0 0 0 28.444445 28.444444zM910.297316 497.777778v-113.777778a56.888889 56.888889 0 0 1 0 113.777778z"  horiz-adv-x="1024" />
      
      <glyph glyph-name="git" unicode="&#59048;" d="M512 832c-16.128 0-31.872-5.888-44-18.016l-90.016-90.976c-4.864-2.624-8.96-6.4-11.968-11.008l-284.032-284a62.304 62.304 0 0 1 0-88l386.016-386.016a62.56 62.56 0 0 1 88 0l386.016 386.016a62.304 62.304 0 0 1 0 88L555.968 814.016A61.536 61.536 0 0 1 512 832z m0-64.992L895.008 384 512 0.992 128.992 384l265.024 264.992 56-56A63.36 63.36 0 0 1 448 576c0-23.616 12.864-43.872 32-55.008v-273.984c-19.136-11.136-32-31.36-32-55.008a63.968 63.968 0 1 1 128 0c0 23.616-12.864 43.872-32 55.008v250.976l98.016-97.984A63.968 63.968 0 0 1 704 320c35.328 0 63.968 28.64 63.968 64a63.968 63.968 0 0 1-80 62.016L573.984 560A63.968 63.968 0 0 1 512 640a63.36 63.36 0 0 1-16.96-2.016l-56 56z"  horiz-adv-x="1024" />
      
      <glyph glyph-name="icon_theme-114" unicode="&#59004;" d="M524.48-69.12a456 456 0 0 0-147.52 24.64 32 32 0 0 0-19.52 40.64 32 32 0 0 0 40.96 19.84 362.24 362.24 0 0 1 126.08-21.12 384 384 0 0 1 125.76 21.44 184.64 184.64 0 0 0-7.36 57.92 192 192 0 0 0 243.2 177.92 384 384 0 0 1-19.84 299.52 32 32 0 1 0 56.96 29.12 448 448 0 0 0 18.24-363.2 51.52 51.52 0 0 0-65.92-29.44 121.6 121.6 0 0 1-45.76 7.36 128 128 0 0 1-122.88-122.88 114.56 114.56 0 0 1 7.36-45.76 51.52 51.52 0 0 0-29.44-65.92 437.12 437.12 0 0 0-160.32-30.08z m137.28 89.6zM130.24 211.2a32 32 0 0 0-30.08 21.44 441.28 441.28 0 0 0-24.64 146.24 448 448 0 0 0 448 448 441.92 441.92 0 0 0 201.92-48.32 32 32 0 0 0-29.12-56.96 375.68 375.68 0 0 1-172.8 41.28A384 384 0 0 1 160 253.76a32 32 0 0 0-19.52-40.96 40.32 40.32 0 0 0-10.24-1.6zM399.04 139.2a56 56 0 0 0-40.64 17.6l-89.28 97.6a55.04 55.04 0 0 0 8 81.28L849.28 760a48.96 48.96 0 0 0 68.48 0 49.6 49.6 0 0 0-5.76-69.12L440.32 157.76a54.72 54.72 0 0 0-40.96-18.56z m6.72 61.12z m-82.56 89.92l75.84-82.56L757.12 612.16zM236.48-34.88h-7.68a169.92 169.92 0 0 0-117.44 54.72 91.84 91.84 0 0 0-30.08 71.04l2.24 16.32 66.56 34.56-4.48 41.28v2.24a83.52 83.52 0 0 0 23.68 59.84c92.8 74.88 155.52 43.52 192 3.84a169.28 169.28 0 0 0-124.48-283.84z m-84.16 105.6A61.44 61.44 0 0 1 160 64a104.64 104.64 0 0 1 148.8-6.4 105.28 105.28 0 0 1 6.4 148.8c-19.84 21.44-46.08 35.52-101.76-8.32a56.32 56.32 0 0 1-2.56-12.8l4.8-42.24a55.04 55.04 0 0 0-29.44-54.72z m60.16 128zM236.16 441.92m-39.68 0a39.68 39.68 0 1 1 79.36 0 39.68 39.68 0 1 1-79.36 0ZM285.76 570.56m-29.76 0a29.76 29.76 0 1 1 59.52 0 29.76 29.76 0 1 1-59.52 0Z"  horiz-adv-x="1024" />
      
      <glyph glyph-name="theme-palette" unicode="&#59528;" d="M512 853.333333C252.8 853.333333 29.12 642.826667 42.666667 384c18.453333-353.013333 429.546667-149.333333 466.666666-426.666667a47.04 47.04 0 0 1 51.573334-40.213333A469.333333 469.333333 0 0 1 512 853.333333z m92.053333-853.333333a26.666667 26.666667 0 0 0-32 17.973333 234.666667 234.666667 0 0 1-83.52 119.786667c-53.333333 40.373333-117.866667 56.32-180.106666 71.786667-124.426667 30.826667-184.533333 51.253333-191.093334 178.346666-5.333333 97.12 30.4 191.04 100.16 264.533334A407.68 407.68 0 0 0 512 778.666667a394.666667 394.666667 0 0 0 92.053333-778.666667zM669.44 158.826667m-72 0a72 72 0 1 1 144 0 72 72 0 1 1-144 0ZM785.92 437.226667m-58.666667 0a58.666667 58.666667 0 1 1 117.333334 0 58.666667 58.666667 0 1 1-117.333334 0ZM731.146667 548.533333a58.666667 58.666667 0 1 1-82.346667 10.08 58.666667 58.666667 0 0 1 82.346667-10.08zM526.397092 662.91182m-50.287148-30.215567a58.666667 58.666667 0 1 1 100.574296 60.431134 58.666667 58.666667 0 1 1-100.574296-60.431134ZM327.68 666.666667A58.666667 58.666667 0 1 1 405.333333 636.746667 58.666667 58.666667 0 0 1 327.68 666.666667z"  horiz-adv-x="1024" />
      
      <glyph glyph-name="message" unicode="&#58929;" d="M996.515019 441.284681c0-55.483662-12.576433-109.289102-37.371142-159.91206-23.822568-48.65821-57.878199-92.302219-101.204983-129.714294-43.11189-37.238113-93.253894-66.443271-149.044548-86.827531-57.601906-21.039175-118.754684-31.702026-181.759647-31.702026-11.307533 0-20.466124 9.15859-20.466124 20.466124 0 11.2973 9.15859 20.466124 20.466124 20.466124 58.205657 0 114.63076 9.82374 167.719886 29.215392 51.114145 18.675338 96.988961 45.373397 136.335085 79.357396 80.20674 69.27783 124.393101 161.129794 124.393101 258.650875 0 97.510848-44.186362 189.373045-124.393101 258.650875-39.346123 33.983999-85.22094 60.682058-136.335085 79.347163-53.089126 19.391652-109.514229 29.225625-167.719886 29.225625s-114.63076-9.833973-167.719886-29.225625c-51.124378-18.665105-96.988961-45.363164-136.335085-79.347163-80.216973-69.27783-124.393101-161.129794-124.393101-258.650875 0-59.024302 15.861246-115.39824 47.133483-167.535691 30.04427-50.101071 73.933873-94.338598 126.930901-127.923508 5.904477-3.755534 9.496282-10.263761 9.506515-17.263176 0-2.691295-0.470721-58.71731-42.395576-132.927475 33.850969 5.761214 66.586534 19.24839 97.715509 40.328497 32.694633 22.144346 51.216475 44.779879 51.40067 45.005007 7.101745 8.769734 19.98517 10.151197 28.765137 3.059686s10.181897-19.934005 3.121084-28.724205c-0.86981-1.084705-21.745257-26.841322-59.065234-52.362578-49.210795-33.666774-104.530728-51.441603-160.065556-51.441603l-1.166569 0c-7.633864 0.040932-14.602579 4.308119-18.102287 11.092639-3.489474 6.774287-2.926656 14.94027 1.463328 21.172205 29.379121 41.679261 43.418882 78.815043 50.019207 102.637612 3.735068 13.46671 5.577019 24.313755 6.487761 31.630395-53.713342 36.102243-98.401124 82.44778-129.724527 134.667096-34.638915 57.765635-52.956096 122.970706-52.956096 188.585099 0 55.483662 12.576433 109.289102 37.360909 159.91206 23.832801 48.647977 57.878199 92.302219 101.204983 129.714294 43.11189 37.227879 93.253894 66.443271 149.044548 86.827531 57.601906 21.039175 118.754684 31.702026 181.76988 31.702026 63.004963 0 124.157741-10.662851 181.759647-31.702026 55.790654-20.384259 105.932658-49.599651 149.044548-86.827531 43.326784-37.412075 77.382415-81.066317 101.204983-129.714294C983.938586 550.573783 996.515019 496.768343 996.515019 441.284681z"  horiz-adv-x="1024" />
      
      <glyph glyph-name="lianlu" unicode="&#59447;" d="M837.818 853.333c-77.119 0-139.636-62.517-139.636-139.636 0-14.701 2.278-28.868 6.49-42.176L314.516 454.768l22.604-40.688 388.84 216.022c25.467-34.022 66.091-56.041 111.859-56.041 77.119 0 139.636 62.517 139.636 139.636S914.937 853.333 837.818 853.333z m0-232.727c-51.331 0-93.091 41.76-93.091 93.091s41.76 93.091 93.091 93.091 93.091-41.76 93.091-93.091-41.76-93.091-93.091-93.091zM742.904 290.676c-70.034 0-131.117-38.297-163.468-95.088L346.045 322.623a151.925 151.925 0 0 1 3.047 30.347c0 51.73-25.973 97.388-65.582 124.666l78.708 184.741c19.678 2.908 38.628 11.928 53.775 27.074 37.49 37.49 37.49 98.274 0 135.765-18.745 18.745-43.314 28.118-67.882 28.118s-49.137-9.373-67.882-28.118c-37.49-37.49-37.49-98.274 0-135.765a95.588 95.588 0 0 1 34.059-21.956L240.26 498.198a151.31 151.31 0 0 1-42.442 6.045c-83.545 0-151.273-67.727-151.273-151.273 0-83.546 67.728-151.273 151.273-151.273 56.553 0 105.851 31.039 131.807 77.006l231.932-126.319a188.16 188.16 0 0 1-6.657-49.713c0-103.832 84.173-188.005 188.005-188.005S930.91-1.161 930.91 102.671s-84.174 188.005-188.006 188.005zM354.906 661.333l-0.467 0.233c0.305 0.02 0.61 0.043 0.916 0.066l-0.449-0.299z m-41.766 130.97c9.341 9.341 21.76 14.485 34.97 14.485 13.21 0 25.629-5.144 34.969-14.485 19.282-19.282 19.282-50.657 0-69.939-9.341-9.341-21.76-14.485-34.97-14.485-13.21 0-25.629 5.144-34.969 14.485-19.282 19.282-19.282 50.657 0 69.939zM197.818 248.242c-57.747 0-104.728 46.981-104.728 104.727s46.98 104.727 104.728 104.727 104.728-46.981 104.728-104.727-46.981-104.727-104.728-104.727z m645.113-245.597c-26.718-26.718-62.242-41.432-100.027-41.432s-73.309 14.714-100.027 41.432c-26.718 26.718-41.433 62.242-41.433 100.027s14.714 73.309 41.433 100.027c26.718 26.718 62.242 41.432 100.027 41.432s73.309-14.714 100.027-41.432c26.718-26.718 41.432-62.242 41.432-100.027s-14.714-73.309-41.432-100.027z"  horiz-adv-x="1024" />
      
      <glyph glyph-name="jishufuwu" unicode="&#60260;" d="M435.2 569.6a32 32 0 0 1-44.8-6.4l-96-128a31.968 31.968 0 0 1 0-38.4l96-128a32 32 0 0 1 51.2 38.4L360 416l81.6 108.8a32 32 0 0 1-6.4 44.8zM748.8 262.4a32 32 0 0 1 44.8 6.4l96 128a31.968 31.968 0 0 1 0 38.4l-96 128a32 32 0 0 1-51.2-38.4l81.6-108.8-81.6-108.8a32 32 0 0 1 6.4-44.8zM592.768 582.944l-64-288a32 32 0 1 1 62.464-13.888l64 288a32 32 0 1 1-62.464 13.888zM864 259.616a32 32 0 0 1-32-32V160h-96a96 96 0 0 1-96-96v-96H227.04C207.712-32 192-15.424 192 4.928V763.072C192 783.424 207.712 800 227.04 800h569.888C816.288 800 832 783.424 832 763.072v-124.448a32 32 0 1 1 64 0V763.072C896 818.72 851.552 864 796.928 864H227.04C172.448 864 128 818.72 128 763.072v-758.144C128-50.72 172.448-96 227.04-96h435.008c1.568 0 2.912 0.672 4.416 0.896 8.96-1.6 18.464 0.256 25.984 6.528l192 160a32 32 0 0 1 10.144 33.888c0.544 2.272 1.408 4.416 1.408 6.848v115.456a32 32 0 0 1-32 32zM736 96h78.016L704 4.32V64a32 32 0 0 0 32 32z"  horiz-adv-x="1024" />
      
      <glyph glyph-name="gitlab" unicode="&#59519;" d="M913.9 343.79999999999995L805 714.6v0.1c-7.6 22.9-25.7 36.5-48.3 36.5-23.4 0-42.5-13.5-49.7-35.2l-71.4-213H388.8l-71.4 213c-7.2 21.7-26.3 35.2-49.7 35.2-23.1 0-42.5-14.8-48.4-36.6L110.5 343.79999999999995c-4.4-14.7 1.2-31.4 13.5-40.7l368.5-276.4c2.6-3.6 6.2-6.3 10.4-7.8l8.6-6.4 8.5 6.4c4.9 1.7 9 4.7 11.9 8.9l368.4 275.4c12.4 9.2 18 25.9 13.6 40.6zM751.7 702.6c1 1.8 2.9 1.9 3.5 1.9 1.1 0 2.5-0.3 3.4-3L818 501.7H684.5l67.2 200.9z m-487.4-1c0.9 2.6 2.3 2.9 3.4 2.9 2.7 0 2.9-0.1 3.4-1.7l67.3-201.2H206.5l57.8 200zM158.8 337.29999999999995l28.2 97.3 202.4-270.2-230.6 172.9z m73.9 116.4h122.1l90.8-284.3-212.9 284.3zM512.9 120L405.7 453.7H620L512.9 120z m157.9 333.7h119.5L580 172.89999999999998l90.8 280.8z m-40.7-293.9l207.3 276.7 29.5-99.2-236.8-177.5z"  horiz-adv-x="1024" />
      
      <glyph glyph-name="dashboard" unicode="&#59275;" d="M924.8 510.4c-22.6 53.4-54.9 101.3-96 142.4-41.1 41.1-89 73.4-142.4 96C631.1 772.2 572.5 784 512 784s-119.1-11.8-174.4-35.2c-53.4-22.6-101.3-54.9-142.4-96-41.1-41.1-73.4-89-96-142.4C75.8 455.1 64 396.5 64 336c0-132.7 58.3-257.7 159.9-343.1l1.7-1.4c5.8-4.8 13.1-7.5 20.6-7.5h531.7c7.5 0 14.8 2.7 20.6 7.5l1.7 1.4C901.7 78.3 960 203.3 960 336c0 60.5-11.9 119.1-35.2 174.4zM761.4 60H262.6C184.5 130.5 140 230.4 140 336c0 99.4 38.7 192.8 109 263 70.3 70.3 163.7 109 263 109 99.4 0 192.8-38.7 263-109 70.3-70.3 109-163.7 109-263 0-105.6-44.5-205.5-122.6-276zM623.5 474.5c-3.1 3.1-8.2 3.1-11.3 0L527.7 390c-18.7 5-39.4 0.2-54.1-14.5-21.9-21.9-21.9-57.3 0-79.2 21.9-21.9 57.3-21.9 79.2 0 14.7 14.7 19.5 35.4 14.5 54.1l84.5 84.5c3.1 3.1 3.1 8.2 0 11.3l-28.3 28.3zM490 576h44c4.4 0 8 3.6 8 8v80c0 4.4-3.6 8-8 8h-44c-4.4 0-8-3.6-8-8v-80c0-4.4 3.6-8 8-8zM750 358v-44c0-4.4 3.6-8 8-8h80c4.4 0 8 3.6 8 8v44c0 4.4-3.6 8-8 8h-80c-4.4 0-8-3.6-8-8zM762.7 555.2l-31.1 31.1c-3.1 3.1-8.2 3.1-11.3 0l-56.6-56.6c-3.1-3.1-3.1-8.2 0-11.3l31.1-31.1c3.1-3.1 8.2-3.1 11.3 0l56.6 56.6c3.1 3.1 3.1 8.2 0 11.3zM304.1 586.3c-3.1 3.1-8.2 3.1-11.3 0l-31.1-31.1c-3.1-3.1-3.1-8.2 0-11.3l56.6-56.6c3.1-3.1 8.2-3.1 11.3 0l31.1 31.1c3.1 3.1 3.1 8.2 0 11.3l-56.6 56.6zM262 366h-80c-4.4 0-8-3.6-8-8v-44c0-4.4 3.6-8 8-8h80c4.4 0 8 3.6 8 8v44c0 4.4-3.6 8-8 8z"  horiz-adv-x="1024" />
      
      <glyph glyph-name="control" unicode="&#59284;" d="M880 784H144c-17.7 0-32-14.3-32-32v-736c0-17.7 14.3-32 32-32h736c17.7 0 32 14.3 32 32V752c0 17.7-14.3 32-32 32z m-40-728H184V712h656v-656zM340 213v-77c0-4.4 3.6-8 8-8h48c4.4 0 8 3.6 8 8v77c-10.1-3.3-20.8-5-32-5s-21.9 1.8-32 5zM404 411V632c0 4.4-3.6 8-8 8h-48c-4.4 0-8-3.6-8-8v-221c10.1 3.3 20.8 5 32 5s21.9-1.8 32-5zM340 213c10.1-3.3 20.8-5 32-5s21.9 1.8 32 5c41.8 13.5 72 52.7 72 99s-30.2 85.5-72 99c-10.1 3.3-20.8 5-32 5s-21.9-1.8-32-5c-41.8-13.5-72-52.7-72-99s30.2-85.5 72-99z m0.1 115.7c0.3 0.6 0.7 1.2 1 1.8v0.1l1.2 1.8c0.1 0.2 0.2 0.3 0.3 0.5 0.3 0.5 0.7 0.9 1 1.4 0.1 0.1 0.2 0.3 0.3 0.4 0.5 0.6 0.9 1.1 1.4 1.6l0.3 0.3 1.2 1.2 0.4 0.4c0.5 0.5 1 0.9 1.6 1.4 0.6 0.5 1.1 0.9 1.7 1.3 0.2 0.1 0.3 0.2 0.5 0.3 0.5 0.3 0.9 0.7 1.4 1 0.1 0.1 0.3 0.2 0.4 0.3 0.6 0.4 1.2 0.7 1.9 1.1 0.1 0.1 0.3 0.1 0.4 0.2 0.5 0.3 1 0.5 1.6 0.8l0.6 0.3c0.7 0.3 1.3 0.6 2 0.8 0.7 0.3 1.4 0.5 2.1 0.7 0.2 0.1 0.4 0.1 0.6 0.2 0.6 0.2 1.1 0.3 1.7 0.4 0.2 0 0.3 0.1 0.5 0.1 0.7 0.2 1.5 0.3 2.2 0.4 0.2 0 0.3 0 0.5 0.1 0.6 0.1 1.2 0.1 1.8 0.2h0.6c0.8 0 1.5 0.1 2.3 0.1s1.5 0 2.3-0.1h0.6c0.6 0 1.2-0.1 1.8-0.2 0.2 0 0.3 0 0.5-0.1 0.7-0.1 1.5-0.2 2.2-0.4 0.2 0 0.3-0.1 0.5-0.1 0.6-0.1 1.2-0.3 1.7-0.4 0.2-0.1 0.4-0.1 0.6-0.2 0.7-0.2 1.4-0.4 2.1-0.7 0.7-0.2 1.3-0.5 2-0.8l0.6-0.3c0.5-0.2 1.1-0.5 1.6-0.8 0.1-0.1 0.3-0.1 0.4-0.2 0.6-0.3 1.3-0.7 1.9-1.1 0.1-0.1 0.3-0.2 0.4-0.3 0.5-0.3 1-0.6 1.4-1 0.2-0.1 0.3-0.2 0.5-0.3 0.6-0.4 1.2-0.9 1.7-1.3s1.1-0.9 1.6-1.4l0.4-0.4 1.2-1.2 0.3-0.3c0.5-0.5 1-1.1 1.4-1.6 0.1-0.1 0.2-0.3 0.3-0.4 0.4-0.4 0.7-0.9 1-1.4 0.1-0.2 0.2-0.3 0.3-0.5l1.2-1.8s0-0.1 0.1-0.1c0.4-0.6 0.7-1.2 1-1.8 2.6-5 4.1-10.7 4.1-16.7s-1.5-11.7-4.1-16.7c-0.3-0.6-0.7-1.2-1-1.8 0 0 0-0.1-0.1-0.1l-1.2-1.8c-0.1-0.2-0.2-0.3-0.3-0.5-0.3-0.5-0.7-0.9-1-1.4-0.1-0.1-0.2-0.3-0.3-0.4-0.5-0.6-0.9-1.1-1.4-1.6l-0.3-0.3-1.2-1.2-0.4-0.4c-0.5-0.5-1-0.9-1.6-1.4-0.6-0.5-1.1-0.9-1.7-1.3-0.2-0.1-0.3-0.2-0.5-0.3-0.5-0.3-0.9-0.7-1.4-1-0.1-0.1-0.3-0.2-0.4-0.3-0.6-0.4-1.2-0.7-1.9-1.1-0.1-0.1-0.3-0.1-0.4-0.2-0.5-0.3-1-0.5-1.6-0.8l-0.6-0.3c-0.7-0.3-1.3-0.6-2-0.8-0.7-0.3-1.4-0.5-2.1-0.7-0.2-0.1-0.4-0.1-0.6-0.2-0.6-0.2-1.1-0.3-1.7-0.4-0.2 0-0.3-0.1-0.5-0.1-0.7-0.2-1.5-0.3-2.2-0.4-0.2 0-0.3 0-0.5-0.1-0.6-0.1-1.2-0.1-1.8-0.2h-0.6c-0.8 0-1.5-0.1-2.3-0.1s-1.5 0-2.3 0.1h-0.6c-0.6 0-1.2 0.1-1.8 0.2-0.2 0-0.3 0-0.5 0.1-0.7 0.1-1.5 0.2-2.2 0.4-0.2 0-0.3 0.1-0.5 0.1-0.6 0.1-1.2 0.3-1.7 0.4-0.2 0.1-0.4 0.1-0.6 0.2-0.7 0.2-1.4 0.4-2.1 0.7-0.7 0.2-1.3 0.5-2 0.8l-0.6 0.3c-0.5 0.2-1.1 0.5-1.6 0.8-0.1 0.1-0.3 0.1-0.4 0.2-0.6 0.3-1.3 0.7-1.9 1.1-0.1 0.1-0.3 0.2-0.4 0.3-0.5 0.3-1 0.6-1.4 1-0.2 0.1-0.3 0.2-0.5 0.3-0.6 0.4-1.2 0.9-1.7 1.3s-1.1 0.9-1.6 1.4l-0.4 0.4-1.2 1.2-0.3 0.3c-0.5 0.5-1 1.1-1.4 1.6-0.1 0.1-0.2 0.3-0.3 0.4-0.4 0.4-0.7 0.9-1 1.4-0.1 0.2-0.2 0.3-0.3 0.5l-1.2 1.8v0.1c-0.4 0.6-0.7 1.2-1 1.8-2.6 5-4.1 10.7-4.1 16.7s1.5 11.7 4.1 16.7zM620 357v-221c0-4.4 3.6-8 8-8h48c4.4 0 8 3.6 8 8V357c-10.1-3.3-20.8-5-32-5s-21.9 1.8-32 5zM684 555v77c0 4.4-3.6 8-8 8h-48c-4.4 0-8-3.6-8-8v-77c10.1 3.3 20.8 5 32 5s21.9-1.8 32-5zM620 357c10.1-3.3 20.8-5 32-5s21.9 1.8 32 5c41.8 13.5 72 52.7 72 99s-30.2 85.5-72 99c-10.1 3.3-20.8 5-32 5s-21.9-1.8-32-5c-41.8-13.5-72-52.7-72-99s30.2-85.5 72-99z m0.1 115.7c0.3 0.6 0.7 1.2 1 1.8v0.1l1.2 1.8c0.1 0.2 0.2 0.3 0.3 0.5 0.3 0.5 0.7 0.9 1 1.4 0.1 0.1 0.2 0.3 0.3 0.4 0.5 0.6 0.9 1.1 1.4 1.6l0.3 0.3 1.2 1.2 0.4 0.4c0.5 0.5 1 0.9 1.6 1.4 0.6 0.5 1.1 0.9 1.7 1.3 0.2 0.1 0.3 0.2 0.5 0.3 0.5 0.3 0.9 0.7 1.4 1 0.1 0.1 0.3 0.2 0.4 0.3 0.6 0.4 1.2 0.7 1.9 1.1 0.1 0.1 0.3 0.1 0.4 0.2 0.5 0.3 1 0.5 1.6 0.8l0.6 0.3c0.7 0.3 1.3 0.6 2 0.8 0.7 0.3 1.4 0.5 2.1 0.7 0.2 0.1 0.4 0.1 0.6 0.2 0.6 0.2 1.1 0.3 1.7 0.4 0.2 0 0.3 0.1 0.5 0.1 0.7 0.2 1.5 0.3 2.2 0.4 0.2 0 0.3 0 0.5 0.1 0.6 0.1 1.2 0.1 1.8 0.2h0.6c0.8 0 1.5 0.1 2.3 0.1s1.5 0 2.3-0.1h0.6c0.6 0 1.2-0.1 1.8-0.2 0.2 0 0.3 0 0.5-0.1 0.7-0.1 1.5-0.2 2.2-0.4 0.2 0 0.3-0.1 0.5-0.1 0.6-0.1 1.2-0.3 1.7-0.4 0.2-0.1 0.4-0.1 0.6-0.2 0.7-0.2 1.4-0.4 2.1-0.7 0.7-0.2 1.3-0.5 2-0.8l0.6-0.3c0.5-0.2 1.1-0.5 1.6-0.8 0.1-0.1 0.3-0.1 0.4-0.2 0.6-0.3 1.3-0.7 1.9-1.1 0.1-0.1 0.3-0.2 0.4-0.3 0.5-0.3 1-0.6 1.4-1 0.2-0.1 0.3-0.2 0.5-0.3 0.6-0.4 1.2-0.9 1.7-1.3s1.1-0.9 1.6-1.4l0.4-0.4 1.2-1.2 0.3-0.3c0.5-0.5 1-1.1 1.4-1.6 0.1-0.1 0.2-0.3 0.3-0.4 0.4-0.4 0.7-0.9 1-1.4 0.1-0.2 0.2-0.3 0.3-0.5l1.2-1.8v-0.1c0.4-0.6 0.7-1.2 1-1.8 2.6-5 4.1-10.7 4.1-16.7s-1.5-11.7-4.1-16.7c-0.3-0.6-0.7-1.2-1-1.8v-0.1l-1.2-1.8c-0.1-0.2-0.2-0.3-0.3-0.5-0.3-0.5-0.7-0.9-1-1.4-0.1-0.1-0.2-0.3-0.3-0.4-0.5-0.6-0.9-1.1-1.4-1.6l-0.3-0.3-1.2-1.2-0.4-0.4c-0.5-0.5-1-0.9-1.6-1.4-0.6-0.5-1.1-0.9-1.7-1.3-0.2-0.1-0.3-0.2-0.5-0.3-0.5-0.3-0.9-0.7-1.4-1-0.1-0.1-0.3-0.2-0.4-0.3-0.6-0.4-1.2-0.7-1.9-1.1-0.1-0.1-0.3-0.1-0.4-0.2-0.5-0.3-1-0.5-1.6-0.8l-0.6-0.3c-0.7-0.3-1.3-0.6-2-0.8-0.7-0.3-1.4-0.5-2.1-0.7-0.2-0.1-0.4-0.1-0.6-0.2-0.6-0.2-1.1-0.3-1.7-0.4-0.2 0-0.3-0.1-0.5-0.1-0.7-0.2-1.5-0.3-2.2-0.4-0.2 0-0.3 0-0.5-0.1-0.6-0.1-1.2-0.1-1.8-0.2h-0.6c-0.8 0-1.5-0.1-2.3-0.1s-1.5 0-2.3 0.1h-0.6c-0.6 0-1.2 0.1-1.8 0.2-0.2 0-0.3 0-0.5 0.1-0.7 0.1-1.5 0.2-2.2 0.4-0.2 0-0.3 0.1-0.5 0.1-0.6 0.1-1.2 0.3-1.7 0.4-0.2 0.1-0.4 0.1-0.6 0.2-0.7 0.2-1.4 0.4-2.1 0.7-0.7 0.2-1.3 0.5-2 0.8l-0.6 0.3c-0.5 0.2-1.1 0.5-1.6 0.8-0.1 0.1-0.3 0.1-0.4 0.2-0.6 0.3-1.3 0.7-1.9 1.1-0.1 0.1-0.3 0.2-0.4 0.3-0.5 0.3-1 0.6-1.4 1-0.2 0.1-0.3 0.2-0.5 0.3-0.6 0.4-1.2 0.9-1.7 1.3s-1.1 0.9-1.6 1.4l-0.4 0.4-1.2 1.2-0.3 0.3c-0.5 0.5-1 1.1-1.4 1.6-0.1 0.1-0.2 0.3-0.3 0.4-0.4 0.4-0.7 0.9-1 1.4-0.1 0.2-0.2 0.3-0.3 0.5l-1.2 1.8v0.1c-0.4 0.6-0.7 1.2-1 1.8-2.6 5-4.1 10.7-4.1 16.7s1.5 11.7 4.1 16.7z"  horiz-adv-x="1024" />
      
      <glyph glyph-name="auto" unicode="&#59115;" d="M689.536 704c26.816 0 50.794667-16.64 60.202667-41.706667l78.08-207.978666 67.754666 39.125333 27.562667-47.786667-50.709333-29.269333a64.213333 64.213333 0 0 0 27.157333-52.522667v-202.368a64.298667 64.298667 0 0 0-64.298667-64.298666h-27.648V21.333333h-55.146666v75.861334H255.957333V21.333333H200.853333v75.861334H173.184a64.298667 64.298667 0 0 0-64.32 64.298666v202.368a64.213333 64.213333 0 0 0 27.2 52.522667L85.333333 445.653333l27.584 47.786667 67.733334-39.104 78.08 207.957333A64.298667 64.298667 0 0 0 318.933333 704h370.602667z m145.728-342.954667H173.184v-199.552h662.101333v199.552z m-556.288-50.090666a41.386667 41.386667 0 1 0 0-82.752 41.386667 41.386667 0 0 0 0 82.752z m455.125333 0a41.386667 41.386667 0 1 0 0-82.752 41.386667 41.386667 0 0 0 0 82.752z m-44.565333 328.746666H318.933333l-79.402666-211.52h529.386666l-79.36 211.52z m-79.573333-46.037333v-62.058667h-206.869334v62.08h206.869334z"  horiz-adv-x="1024" />
      
      <glyph glyph-name="add-account" unicode="&#59201;" d="M175.893333 126.976l146.602667 171.050667c18.666667-11.669333 38.826667-21.184 60.117333-28.202667L224.490667 85.333333H554.666667v-64H224.490667a64 64 0 0 0-48.597334 105.642667l146.602667 171.050667zM746.666667 256v-85.333333h85.333333v-64h-85.333333v-85.333334h-64v85.333334h-85.333334v64h85.333334v85.333333h64zM469.333333 746.666667c117.824 0 213.333333-95.509333 213.333334-213.333334s-95.509333-213.333333-213.333334-213.333333-213.333333 95.509333-213.333333 213.333333S351.509333 746.666667 469.333333 746.666667z m0-64a149.333333 149.333333 0 1 1 0-298.666667 149.333333 149.333333 0 0 1 0 298.666667z"  horiz-adv-x="1024" />
      
      <glyph glyph-name="page" unicode="&#58922;" d="M809.021787-20.341025l-590.652338 0c-48.40443 0-87.799672 39.395242-87.799672 87.799672l0 654.506644c0 48.40443 39.395242 87.799672 87.799672 87.799672l590.652338 0c48.40443 0 87.799672-39.395242 87.799672-87.799672l0-654.506644C896.821459 19.054217 857.426217-20.341025 809.021787-20.341025zM218.36945 761.874233c-22.01234 0-39.908942-17.896602-39.908942-39.908942l0-654.506644c0-22.01234 17.896602-39.908942 39.908942-39.908942l590.652338 0c22.01234 0 39.908942 17.896602 39.908942 39.908942l0 654.506644c0 22.01234-17.896602 39.908942-39.908942 39.908942L218.36945 761.874233zM322.132698 187.185472l383.125841 0 0-31.927153-383.125841 0 0 31.927153ZM322.132698 506.457006l383.125841 0 0-31.927153-383.125841 0 0 31.927153ZM322.132698 650.129196l383.125841 0 0-31.927153-383.125841 0 0 31.927153ZM322.132698 346.821239l383.125841 0 0-31.927153-383.125841 0 0 31.927153Z"  horiz-adv-x="1024" />
      
      <glyph glyph-name="list" unicode="&#59195;" d="M134.976 42.688H89.6c-26.56 0-46.912 20.928-46.912 48.256 0 27.392 20.352 48.32 46.912 48.32h45.376c26.624 0 46.912-20.928 46.912-48.32 0-27.328-20.288-48.256-46.912-48.256zM134.976 335.68H89.6C63.04 335.68 42.688 356.608 42.688 384s20.352 48.32 46.912 48.32h45.376c26.624 0 46.912-20.928 46.912-48.32s-20.288-48.32-46.912-48.32zM134.976 628.736H89.6c-26.56 0-46.912 20.928-46.912 48.32 0 27.328 20.352 48.256 46.912 48.256h45.376c26.624 0 46.912-20.928 46.912-48.256 0-27.392-20.288-48.32-46.912-48.32zM311.744 42.688c-26.56 0-46.912 20.928-46.912 48.256 0 27.392 20.352 48.32 46.912 48.32h622.72c26.56 0 46.848-20.928 46.848-48.32 0-27.328-20.288-48.256-46.912-48.256H311.744c1.6 0 1.6 0 0 0zM311.744 335.68c-26.56 0-46.912 20.928-46.912 48.32s20.352 48.32 46.912 48.32h622.72c26.56 0 46.848-20.928 46.848-48.32s-20.288-48.32-46.912-48.32H311.744c1.6 0 1.6 0 0 0zM311.744 628.736c-26.56 0-46.912 20.928-46.912 48.32 0 27.328 20.352 48.256 46.912 48.256h622.72c26.56 0 46.848-20.928 46.848-48.256 0-27.392-20.288-48.32-46.912-48.32H311.744c1.6 0 1.6 0 0 0z"  horiz-adv-x="1024" />
      
      <glyph glyph-name="layout" unicode="&#58940;" d="M170.666667 853.333333l682.666667 0q52.992 0 90.496-37.504t37.504-90.496l0-682.666667q0-52.992-37.504-90.496t-90.496-37.504l-682.666667 0q-52.992 0-90.496 37.504t-37.504 90.496l0 682.666667q0 52.992 37.504 90.496t90.496 37.504zM341.333333 0l0 512-213.333333 0 0-469.333333q0-17.664 12.501333-30.165333t30.165333-12.501333l170.666667 0zM896 42.666667l0 469.333333-469.333333 0 0-512 426.666667 0q17.664 0 30.165333 12.501333t12.501333 30.165333zM853.333333 768l-682.666667 0q-17.664 0-30.165333-12.501333t-12.501333-30.165333l0-128 768 0 0 128q0 17.664-12.501333 30.165333t-30.165333 12.501333z"  horiz-adv-x="1024" />
      
      <glyph glyph-name="jilu" unicode="&#58907;" d="M409.709989 824.506982h204.879992v-51.195001H409.709989zM798.871985-128H225.327995c-70.593106 0-127.987501 57.394395-127.987501 127.987501V696.519481c0 70.593106 57.394395 127.987501 127.987501 127.987501h47.795333v-51.195001h-47.795333c-42.39586 0-76.792501-34.496631-76.7925-76.7925V0.08749099999999999c0-42.39586 34.496631-76.792501 76.7925-76.7925h573.54399c42.39586 0 76.792501 34.496631 76.792501 76.7925V696.519481c0 42.39586-34.496631 76.792501-76.792501 76.7925h-47.795332V824.506982h47.795332c70.593106 0 127.987501-57.394395 127.987501-127.987501V0.08749099999999999c0.09999-70.693096-57.394395-128.087491-127.987501-128.087491zM317.319012 895.90001h51.195v-184.381994h-51.195zM657.785763 895.90001H708.980764v-184.381994h-51.195001zM268.623767 576.6311880000001h480.553071v-51.195H268.623767zM268.623767 373.55102h480.553071v-51.195H268.623767zM268.623767 166.17127200000004h316.669075v-51.195H268.623767z"  horiz-adv-x="1024" />
      
      <glyph glyph-name="changyongshili" unicode="&#58943;" d="M868.6 384v-356.6H630.9V384h237.7m0 59.4H630.9c-32.8 0-59.4-26.6-59.4-59.4v-356.6c0-32.8 26.6-59.4 59.4-59.4h237.7c32.8 0 59.4 26.6 59.4 59.4V384c0 32.8-26.6 59.4-59.4 59.4zM868.6 740.6v-178.3H630.9V740.6h237.7m0 59.4H630.9c-32.8 0-59.4-26.6-59.4-59.4v-178.3c0-32.8 26.6-59.4 59.4-59.4h237.7c32.8 0 59.4 26.6 59.4 59.4V740.6c0 32.8-26.6 59.4-59.4 59.4zM452.6 740.6v-416H155.4v416h297.2m0 59.4H155.4C122.6 800 96 773.4 96 740.6v-416c0-32.8 26.6-59.4 59.4-59.4h297.1c32.8 0 59.4 26.6 59.4 59.4v416c0.1 32.8-26.5 59.4-59.3 59.4zM452.6 146.3v-118.9H155.4V146.3h297.2m0 59.4H155.4c-32.8 0-59.4-26.6-59.4-59.4v-118.9c0-32.8 26.6-59.4 59.4-59.4h297.1c32.8 0 59.4 26.6 59.4 59.4V146.3c0.1 32.8-26.5 59.4-59.3 59.4z"  horiz-adv-x="1024" />
      
      <glyph glyph-name="examples" unicode="&#59465;" d="M64 832v-896h896V832H64z m832-832H128V704h768v-704zM192 576h384v-64H192zM192 384h576v-64H192zM192 192h384v-64H192z"  horiz-adv-x="1024" />
      
      <glyph glyph-name="java" unicode="&#58886;" d="M746.762 720.464c-29.661-20.894-58.555-38.684-90.296-64.505-23.997-19.615-67.321-46.428-69.657-82.553-3.616-54.939 81.016-105.75 36.125-175.407-17.023-26.558-45.916-37.917-82.553-54.171-4.383 7.999 9.535 14.718 15.487 23.23 56.25 81.528-58.555 108.597-43.868 208.94 14.175 96.983 128.468 130.804 234.762 144.466zM388.204 385.136c-26.558-12.383-70.938-14.719-90.296-41.276 19.614-14.719 48.252-14.175 74.81-15.487 108.853-4.895 245.064 4.384 337.92 20.638 3.103-6.72-12.895-18.302-23.23-25.79-58.555-42.811-240.682-54.938-366.302-46.427-42.044 2.848-138.26 13.919-139.315 51.58-1.28 45.659 116.597 50.554 165.104 54.17 9.536 0.768 27.358 4.64 41.277 2.592zM334.033 269.05c12.127-1.536-8.512-8.767-5.152-18.047 44.38-43.867 182.383-31.485 250.217-18.046 14.174 2.848 28.381 11.36 38.684 10.335 25.79-2.336 42.3-32.253 64.506-36.124-78.425-35.357-229.834-52.124-340.512-30.942-28.637 5.408-78.425 20.895-79.96 43.868-2.336 31.23 49.275 44.38 72.217 49.02z m33.533-105.782c7.999-2.592-2.848-6.976-2.592-10.335 23.486-40.765 139.57-26.302 198.637-12.895 11.871 2.848 23.742 11.103 33.533 10.335 29.917-2.048 41.276-33.277 67.066-38.684-82.297-50.3-281.702-70.682-363.742-7.744-3.872 45.916 33.02 51.067 67.066 59.323z m-74.81-77.401c-24.51-6.207-87.96 2.592-90.295-30.941-0.768-12.895 21.662-28.126 36.125-33.533 84.088-31.741 253.064-36.637 392.09-20.638 64.507 7.487 185.743 29.15 170.257 95.447 19.358-2.336 36.636-14.719 38.684-33.533 7.744-71.193-155.825-101.11-221.835-108.342-143.698-15.742-323.234-12.639-433.367 25.79-35.869 12.383-79.193 35.357-77.401 69.657 3.104 57.787 142.387 73.785 185.743 36.125z m219.276-213.836c-96.727 10.591-189.87 24.766-268.295 59.322 205.069-49.275 504.049-45.66 647.491 59.323 7.744 5.663 14.975 16.766 25.79 15.486-36.125-108.341-174.896-115.829-294.084-134.131H512zM579.098 895.904c18.046-17.022 30.94-48.763 30.94-82.552 0-99.83-105.75-157.617-157.36-224.427-11.36-14.975-26.046-37.917-25.79-61.914 0.512-54.427 56.763-115.318 77.4-159.953-36.124 23.741-79.96 55.45-110.933 92.855-30.941 37.148-61.914 97.495-33.533 149.618 42.556 78.425 169.232 125.108 214.124 208.94 10.847 20.382 19.358 51.58 5.152 77.401z m152.21-536.59c53.146 45.404 143.154 27.614 147.026-49.02 4.383-89.783-93.912-140.082-165.105-144.466 33.021 31.486 120.213 82.04 103.19 154.77-6.975 29.405-43.611 47.196-85.112 38.684z"  horiz-adv-x="1024" />
      
      <glyph glyph-name="keepalived" unicode="&#59270;" d="M672 498.76L749.24 576H912c8.84 0 16 7.16 16 16V784c0 8.84-7.16 16-16 16h-192c-8.84 0-16-7.16-16-16v-162.76L626.76 544H397.24L320 621.24V784c0 8.84-7.16 16-16 16H112c-8.84 0-16-7.16-16-16v-192c0-8.84 7.16-16 16-16h162.76L352 498.76v-229.48L274.76 192H112c-8.84 0-16-7.16-16-16v-192c0-8.84 7.16-16 16-16h192c8.84 0 16 7.16 16 16v162.76L397.24 224h229.48L704 146.76V-16c0-8.84 7.16-16 16-16h192c8.84 0 16 7.16 16 16v192c0 8.84-7.16 16-16 16h-162.76L672 269.24V498.76zM768 736h96v-96h-96V736z m-352-256h192v-192h-192v192zM256 640H160V736h96v-96z m0-608H160v96h96v-96z m512 96h96v-96h-96v96z"  horiz-adv-x="1024" />
      
      <glyph glyph-name="dubbo" unicode="&#59043;" d="M1023.9424 449.408c-2.752 114.368-58.56 157.888-106.176 172.864-47.616 14.976-147.008-5.44-201.472-16.32-54.464-10.88-236.864-4.096-317.184 35.392-80.32 39.488-219.136 5.44-219.136 5.44s-225.984-68.032-171.52-296.768c87.104-259.968 461.44-230.08 687.424-197.376 225.984 32.704 330.816 182.464 328.064 296.768z m-68.736-69.376c-32-74.88-137.472-151.808-329.408-174.208-191.936-22.464-282.432 0-304.256 8.192-21.76 8.192-224.576 52.416-230.08 204.864 4.096 74.88 31.296 101.44 31.296 101.44s41.536 83.008 116.416 67.392c74.88-15.68 214.4-68.736 269.504-79.616 55.104-10.88 200.128-4.736 252.48 16.32s125.248 27.904 165.376-2.048 60.672-67.456 28.672-142.336zM233.9904 446.4h49.92c23.68 0 40.448-0.32 50.176-3.648 9.792-3.328 14.656-12.992 14.656-23.616v-59.648c0-8.256-4.224-14.784-12.736-19.712-8.512-4.928-22.72-7.36-42.624-7.36h-59.456l0.064 113.984z m79.104-83.008c4.672 1.216 6.976 4.288 6.976 9.216v34.432c0 4.096-2.048 6.784-6.08 8-4.032 1.216-24.832 1.856-29.568 1.984h-20.864v-55.488c7.488 0.064 44.864 0.64 49.536 1.856zM392.5184 445.952v-78.592c0-2.752 1.28-3.52 3.84-5.12 2.56-1.6 18.944-1.088 22.016-1.152h1.792a2.368 2.368 0 0 1 0.768 0.128c3.072 0.192 19.456-0.192 22.016 1.472 2.56 1.664 3.84 2.688 3.84 5.76v77.504h30.464v-73.088c0-12.672-7.36-30.848-16.704-35.456-9.28-4.608-21.952-5.568-37.824-5.568-18.944 0-33.28 0.96-42.88 5.568-9.664 4.608-17.216 21.696-17.216 32.128v76.416h29.888zM487.3024 446.784h61.12c13.888 0 26.368-1.984 37.568-5.888a24.32 24.32 0 0 0 16.768-23.36c0-6.336 0.96-14.336-2.368-17.92-3.264-3.52-4.032-2.944-7.936-4.48a45.312 45.312 0 0 0-9.088-2.176c9.408-2.88 10.752-6.144 14.976-9.856 4.16-3.712 6.272-9.408 6.272-17.152a29.376 29.376 0 0 0-12.544-25.344c-8.384-5.568-22.272-8.384-41.856-8.384h-62.976l0.064 114.56z m83.2-45.312c3.968 1.664 5.952 5.376 5.952 11.072 0 2.752-1.216 6.272-3.712 7.872a18.752 18.752 0 0 1-10.304 2.368h-46.976v-22.464c10.048 0 51.072-0.512 55.04 1.152z m-2.304-44.608c5.184 1.344 7.744 5.12 7.744 11.2 0 5.696-2.816 6.528-8.384 7.936-5.568 1.408-42.88-0.32-52.032 0.192v-18.688c9.984 0 47.488-2.048 52.672-0.64zM614.2784 446.784h61.12c13.888 0 26.368-1.984 37.568-5.888a24.32 24.32 0 0 0 16.768-23.36c0-6.336 0.832-14.336-2.432-17.92-3.264-3.52-3.904-2.944-7.872-4.48a45.312 45.312 0 0 0-9.088-2.176c9.408-2.88 10.752-6.144 14.976-9.856 4.16-3.712 6.272-9.408 6.272-17.152a29.376 29.376 0 0 0-12.544-25.344c-8.384-5.568-22.272-8.384-41.856-8.384h-62.976l0.064 114.56z m83.136-45.312c3.968 1.664 5.952 5.376 5.952 11.072 0 2.752-1.216 6.272-3.712 7.872a18.752 18.752 0 0 1-10.304 2.368h-46.976v-22.464c10.048 0 51.072-0.512 55.04 1.152z m-2.304-44.608c5.184 1.344 7.744 5.12 7.744 11.2 0 5.696-2.816 6.528-8.384 7.936-5.568 1.408-42.88-0.32-52.032 0.192v-18.688c9.984 0 47.552-2.048 52.672-0.64zM744.9024 416.832c0 10.56 5.44 19.328 16.256 23.744 10.816 4.352 23.936 6.592 39.36 6.592l6.208-0.128 6.208-0.32c10.816-0.96 20.672-3.52 29.568-7.744a23.296 23.296 0 0 0 13.312-22.08v-46.976a30.912 30.912 0 0 0-13.312-26.176c-8.896-6.144-16.704-11.904-36.992-11.904-20.672 0-41.6 2.112-49.216 9.024-7.616 6.912-11.456 20.224-11.456 29.056l0.064 46.912z m30.016-51.136c0-2.944 1.472-6.528 4.416-8.064 2.944-1.536 19.84-0.96 23.36-0.96h0.768c3.392 0.128 17.408-0.448 20.288 1.024 2.88 1.472 4.288 5.056 4.288 8v44.032c0 2.944-1.472 6.528-4.288 8-2.88 1.472-16.896 0.896-20.288 1.024h-0.768c-3.584 0-20.416 0.64-23.36-0.832-2.944-1.472-4.416-5.12-4.416-8.128v-44.096z"  horiz-adv-x="1024" />
      
      <glyph glyph-name="Elasticsearchshuchu" unicode="&#58990;" d="M426.88 109.44H109.184V646.144h305.28v-93.568H223.488v-126.464h177.408v-93.184H223.488v-129.92h203.392v-93.568zM542.592 244.608c43.136-35.84 92.288-53.76 147.2-53.76 31.232 0 54.656 5.376 70.272 16.128 15.744 10.752 23.552 24.576 23.552 41.344 0 14.592-6.272 28.288-18.688 41.216-12.416 12.928-45.44 30.464-98.688 52.608-83.84 35.584-125.824 87.296-125.824 155.264 0 49.92 18.944 88.576 56.96 116.224s88.32 41.344 150.912 41.344c52.48 0 96.384-6.784 131.968-20.48v-107.392c-35.968 24.448-78.208 36.736-126.464 36.736-28.16 0-50.688-5.12-67.584-15.36-16.896-10.24-25.344-24.064-25.344-41.344 0-13.824 5.76-26.624 17.28-38.272 11.52-11.648 40.064-27.392 85.632-47.232 53.376-22.912 89.984-46.976 109.952-72.448 19.968-25.472 29.952-55.68 29.952-90.752 0-51.456-18.304-90.752-54.784-117.76-36.48-27.008-88.32-40.576-155.52-40.576-61.44 0-111.744 9.984-151.04 29.824v114.688z"  horiz-adv-x="1024" />
      
      <glyph glyph-name="home" unicode="&#59334;" d="M946.5 391L560.1 777.2l-25.9 25.9c-12.3 12.2-32.1 12.2-44.4 0L77.5 391c-12.3-12.3-18.9-28.6-18.8-46 0.4-35.2 29.7-63.3 64.9-63.3h42.5V-44h691.8V281.7h43.4c17.1 0 33.2 6.7 45.3 18.8 12.1 12.1 18.7 28.2 18.7 45.3 0 17-6.7 33.1-18.8 45.2zM568 28H456V232h112v-204z m217.9 325.7V28H632V256c0 22.1-17.9 40-40 40H432c-22.1 0-40-17.9-40-40v-228H238.1V353.7h-96l370 369.7 23.1-23.1L882 353.7h-96.1z"  horiz-adv-x="1024" />
      
      <glyph glyph-name="appstore" unicode="&#59282;" d="M464 752H160c-8.8 0-16-7.2-16-16v-304c0-8.8 7.2-16 16-16h304c8.8 0 16 7.2 16 16V736c0 8.8-7.2 16-16 16z m-52-268H212V684h200v-200zM864 752H560c-8.8 0-16-7.2-16-16v-304c0-8.8 7.2-16 16-16h304c8.8 0 16 7.2 16 16V736c0 8.8-7.2 16-16 16z m-52-268H612V684h200v-200zM464 352H160c-8.8 0-16-7.2-16-16v-304c0-8.8 7.2-16 16-16h304c8.8 0 16 7.2 16 16V336c0 8.8-7.2 16-16 16z m-52-268H212V284h200v-200zM864 352H560c-8.8 0-16-7.2-16-16v-304c0-8.8 7.2-16 16-16h304c8.8 0 16 7.2 16 16V336c0 8.8-7.2 16-16 16z m-52-268H612V284h200v-200z"  horiz-adv-x="1024" />
      
    </font>
</defs>
</svg>
